START RECORD GO HERE.                                                   S      1
1H,,1H;,20HCNEXT - IGES PRODUCT,13HKOO PART4.igs,44HIBM CATIA IGES - CATG      1
IA Version 5 Release 14 ,27HCATIA Version 5 Release 14 ,32,75,6,75,15,7HG      2
Part1.2,1.0,2,2HMM,1000,1.0,15H20060602.155207,0.001,10000.0,6Husers1,4HG      3
PC47,11,0,15H20060602.155207,;                                          G      4
     110       1       0       0       0       0       0       001010001D      1
     110       0       0       1       0                               0D      2
     110       2       0       0       0       0       0       001010001D      3
     110       0       0       2       0                               0D      4
     120       4       0       0       0       0       0       001010001D      5
     120       0       0       1       0                               0D      6
     110       5       0       0       0       0       0       001010001D      7
     110       0       0       2       0                               0D      8
     124       7       0       0       0       0       0       001020201D      9
     124       0       0       2       0                               0D     10
     100       9       0       0       0       0       9       001010001D     11
     100       0       0       1       0                               0D     12
     110      10       0       0       0       0       0       001010001D     13
     110       0       0       2       0                               0D     14
     124      12       0       0       0       0       0       001020201D     15
     124       0       0       2       0                               0D     16
     100      14       0       0       0       0      15       001010001D     17
     100       0       0       1       0                               0D     18
     102      15       0       0       0       0       0       001010001D     19
     102       0       0       1       0                               0D     20
     142      16       0       0       0       0       0       001010001D     21
     142       0       0       1       0                               0D     22
     144      17       0       0   10000       0       0       000000000D     23
     144       0       0       1       0                               0D     24
     110      18       0       0       0       0       0       001010001D     25
     110       0       0       1       0                               0D     26
     110      19       0       0       0       0       0       001010001D     27
     110       0       0       2       0                               0D     28
     120      21       0       0       0       0       0       001010001D     29
     120       0       0       1       0                               0D     30
     110      22       0       0       0       0       0       001010001D     31
     110       0       0       2       0                               0D     32
     124      24       0       0       0       0       0       001020201D     33
     124       0       0       2       0                               0D     34
     100      26       0       0       0       0      33       001010001D     35
     100       0       0       1       0                               0D     36
     110      27       0       0       0       0       0       001010001D     37
     110       0       0       2       0                               0D     38
     124      29       0       0       0       0       0       001020201D     39
     124       0       0       2       0                               0D     40
     100      31       0       0       0       0      39       001010001D     41
     100       0       0       1       0                               0D     42
     102      32       0       0       0       0       0       001010001D     43
     102       0       0       1       0                               0D     44
     142      33       0       0       0       0       0       001010001D     45
     142       0       0       1       0                               0D     46
     144      34       0       0   10000       0       0       000000000D     47
     144       0       0       1       0                               0D     48
     108      35       0       0       0       0       0       001010001D     49
     108       0       0       1       0                               0D     50
     124      36       0       0       0       0       0       001020201D     51
     124       0       0       2       0                               0D     52
     100      38       0       0       0       0      51       001010001D     53
     100       0       0       1       0                               0D     54
     124      39       0       0       0       0       0       001020201D     55
     124       0       0       2       0                               0D     56
     100      41       0       0       0       0      55       001010001D     57
     100       0       0       1       0                               0D     58
     102      42       0       0       0       0       0       001010001D     59
     102       0       0       1       0                               0D     60
     142      43       0       0       0       0       0       001010001D     61
     142       0       0       1       0                               0D     62
     124      44       0       0       0       0       0       001020201D     63
     124       0       0       2       0                               0D     64
     100      46       0       0       0       0      63       001010001D     65
     100       0       0       1       0                               0D     66
     124      47       0       0       0       0       0       001020201D     67
     124       0       0       2       0                               0D     68
     100      49       0       0       0       0      67       001010001D     69
     100       0       0       1       0                               0D     70
     102      50       0       0       0       0       0       001010001D     71
     102       0       0       1       0                               0D     72
     142      51       0       0       0       0       0       001010001D     73
     142       0       0       1       0                               0D     74
     144      52       0       0   10000       0       0       000000000D     75
     144       0       0       1       0                               0D     76
     110      53       0       0       0       0       0       001010001D     77
     110       0       0       1       0                               0D     78
     110      54       0       0       0       0       0       001010001D     79
     110       0       0       2       0                               0D     80
     120      56       0       0       0       0       0       001010001D     81
     120       0       0       1       0                               0D     82
     124      57       0       0       0       0       0       001020201D     83
     124       0       0       2       0                               0D     84
     100      59       0       0       0       0      83       001010001D     85
     100       0       0       1       0                               0D     86
     110      60       0       0       0       0       0       001010001D     87
     110       0       0       2       0                               0D     88
     124      62       0       0       0       0       0       001020201D     89
     124       0       0       2       0                               0D     90
     100      64       0       0       0       0      89       001010001D     91
     100       0       0       1       0                               0D     92
     110      65       0       0       0       0       0       001010001D     93
     110       0       0       2       0                               0D     94
     102      67       0       0       0       0       0       001010001D     95
     102       0       0       1       0                               0D     96
     142      68       0       0       0       0       0       001010001D     97
     142       0       0       1       0                               0D     98
     144      69       0       0   10000       0       0       000000000D     99
     144       0       0       1       0                               0D    100
     110      70       0       0       0       0       0       001010001D    101
     110       0       0       1       0                               0D    102
     110      71       0       0       0       0       0       001010001D    103
     110       0       0       2       0                               0D    104
     120      73       0       0       0       0       0       001010001D    105
     120       0       0       1       0                               0D    106
     124      74       0       0       0       0       0       001020201D    107
     124       0       0       2       0                               0D    108
     100      76       0       0       0       0     107       001010001D    109
     100       0       0       1       0                               0D    110
     110      77       0       0       0       0       0       001010001D    111
     110       0       0       2       0                               0D    112
     124      79       0       0       0       0       0       001020201D    113
     124       0       0       2       0                               0D    114
     100      81       0       0       0       0     113       001010001D    115
     100       0       0       1       0                               0D    116
     110      82       0       0       0       0       0       001010001D    117
     110       0       0       2       0                               0D    118
     102      84       0       0       0       0       0       001010001D    119
     102       0       0       1       0                               0D    120
     142      85       0       0       0       0       0       001010001D    121
     142       0       0       1       0                               0D    122
     144      86       0       0   10000       0       0       000000000D    123
     144       0       0       1       0                               0D    124
     108      87       0       0       0       0       0       001010001D    125
     108       0       0       1       0                               0D    126
     124      88       0       0       0       0       0       001020201D    127
     124       0       0       2       0                               0D    128
     100      90       0       0       0       0     127       001010001D    129
     100       0       0       1       0                               0D    130
     124      91       0       0       0       0       0       001020201D    131
     124       0       0       3       0                               0D    132
     100      94       0       0       0       0     131       001010001D    133
     100       0       0       1       0                               0D    134
     102      95       0       0       0       0       0       001010001D    135
     102       0       0       1       0                               0D    136
     142      96       0       0       0       0       0       001010001D    137
     142       0       0       1       0                               0D    138
     124      97       0       0       0       0       0       001020201D    139
     124       0       0       2       0                               0D    140
     100      99       0       0       0       0     139       001010001D    141
     100       0       0       1       0                               0D    142
     124     100       0       0       0       0       0       001020201D    143
     124       0       0       2       0                               0D    144
     100     102       0       0       0       0     143       001010001D    145
     100       0       0       1       0                               0D    146
     102     103       0       0       0       0       0       001010001D    147
     102       0       0       1       0                               0D    148
     142     104       0       0       0       0       0       001010001D    149
     142       0       0       1       0                               0D    150
     144     105       0       0   10000       0       0       000000000D    151
     144       0       0       1       0                               0D    152
     110     106       0       0       0       0       0       001010001D    153
     110       0       0       2       0                               0D    154
     110     108       0       0       0       0       0       001010001D    155
     110       0       0       2       0                               0D    156
     120     110       0       0       0       0       0       001010001D    157
     120       0       0       1       0                               0D    158
     124     111       0       0       0       0       0       001020201D    159
     124       0       0       3       0                               0D    160
     100     114       0       0       0       0     159       001010001D    161
     100       0       0       1       0                               0D    162
     110     115       0       0       0       0       0       001010001D    163
     110       0       0       2       0                               0D    164
     124     117       0       0       0       0       0       001020201D    165
     124       0       0       3       0                               0D    166
     100     120       0       0       0       0     165       001010001D    167
     100       0       0       1       0                               0D    168
     110     121       0       0       0       0       0       001010001D    169
     110       0       0       2       0                               0D    170
     102     123       0       0       0       0       0       001010001D    171
     102       0       0       1       0                               0D    172
     142     124       0       0       0       0       0       001010001D    173
     142       0       0       1       0                               0D    174
     144     125       0       0   10000       0       0       000000000D    175
     144       0       0       1       0                               0D    176
     110     126       0       0       0       0       0       001010001D    177
     110       0       0       2       0                               0D    178
     110     128       0       0       0       0       0       001010001D    179
     110       0       0       2       0                               0D    180
     120     130       0       0       0       0       0       001010001D    181
     120       0       0       1       0                               0D    182
     124     131       0       0       0       0       0       001020201D    183
     124       0       0       3       0                               0D    184
     100     134       0       0       0       0     183       001010001D    185
     100       0       0       1       0                               0D    186
     110     135       0       0       0       0       0       001010001D    187
     110       0       0       2       0                               0D    188
     124     137       0       0       0       0       0       001020201D    189
     124       0       0       3       0                               0D    190
     100     140       0       0       0       0     189       001010001D    191
     100       0       0       1       0                               0D    192
     110     141       0       0       0       0       0       001010001D    193
     110       0       0       2       0                               0D    194
     102     143       0       0       0       0       0       001010001D    195
     102       0       0       1       0                               0D    196
     142     144       0       0       0       0       0       001010001D    197
     142       0       0       1       0                               0D    198
     144     145       0       0   10000       0       0       000000000D    199
     144       0       0       1       0                               0D    200
     110     146       0       0       0       0       0       001010001D    201
     110       0       0       1       0                               0D    202
     110     147       0       0       0       0       0       001010001D    203
     110       0       0       1       0                               0D    204
     120     148       0       0       0       0       0       001010001D    205
     120       0       0       1       0                               0D    206
     124     149       0       0       0       0       0       001020201D    207
     124       0       0       2       0                               0D    208
     100     151       0       0       0       0     207       001010001D    209
     100       0       0       1       0                               0D    210
     110     152       0       0       0       0       0       001010001D    211
     110       0       0       1       0                               0D    212
     124     153       0       0       0       0       0       001020201D    213
     124       0       0       2       0                               0D    214
     100     155       0       0       0       0     213       001010001D    215
     100       0       0       1       0                               0D    216
     110     156       0       0       0       0       0       001010001D    217
     110       0       0       2       0                               0D    218
     102     158       0       0       0       0       0       001010001D    219
     102       0       0       1       0                               0D    220
     142     159       0       0       0       0       0       001010001D    221
     142       0       0       1       0                               0D    222
     144     160       0       0   10000       0       0       000000000D    223
     144       0       0       1       0                               0D    224
     110     161       0       0       0       0       0       001010001D    225
     110       0       0       1       0                               0D    226
     110     162       0       0       0       0       0       001010001D    227
     110       0       0       2       0                               0D    228
     120     164       0       0       0       0       0       001010001D    229
     120       0       0       1       0                               0D    230
     124     165       0       0       0       0       0       001020201D    231
     124       0       0       2       0                               0D    232
     100     167       0       0       0       0     231       001010001D    233
     100       0       0       1       0                               0D    234
     110     168       0       0       0       0       0       001010001D    235
     110       0       0       2       0                               0D    236
     124     170       0       0       0       0       0       001020201D    237
     124       0       0       2       0                               0D    238
     100     172       0       0       0       0     237       001010001D    239
     100       0       0       1       0                               0D    240
     110     173       0       0       0       0       0       001010001D    241
     110       0       0       1       0                               0D    242
     102     174       0       0       0       0       0       001010001D    243
     102       0       0       1       0                               0D    244
     142     175       0       0       0       0       0       001010001D    245
     142       0       0       1       0                               0D    246
     144     176       0       0   10000       0       0       000000000D    247
     144       0       0       1       0                               0D    248
     108     177       0       0       0       0       0       001010001D    249
     108       0       0       1       0                               0D    250
     124     178       0       0       0       0       0       001020201D    251
     124       0       0       2       0                               0D    252
     100     180       0       0       0       0     251       001010001D    253
     100       0       0       1       0                               0D    254
     124     181       0       0       0       0       0       001020201D    255
     124       0       0       2       0                               0D    256
     100     183       0       0       0       0     255       001010001D    257
     100       0       0       1       0                               0D    258
     102     184       0       0       0       0       0       001010001D    259
     102       0       0       1       0                               0D    260
     142     185       0       0       0       0       0       001010001D    261
     142       0       0       1       0                               0D    262
     124     186       0       0       0       0       0       001020201D    263
     124       0       0       2       0                               0D    264
     100     188       0       0       0       0     263       001010001D    265
     100       0       0       1       0                               0D    266
     124     189       0       0       0       0       0       001020201D    267
     124       0       0       2       0                               0D    268
     100     191       0       0       0       0     267       001010001D    269
     100       0       0       1       0                               0D    270
     102     192       0       0       0       0       0       001010001D    271
     102       0       0       1       0                               0D    272
     142     193       0       0       0       0       0       001010001D    273
     142       0       0       1       0                               0D    274
     144     194       0       0   10000       0       0       000000000D    275
     144       0       0       1       0                               0D    276
     110     195       0       0       0       0       0       001010001D    277
     110       0       0       2       0                               0D    278
     110     197       0       0       0       0       0       001010001D    279
     110       0       0       2       0                               0D    280
     120     199       0       0       0       0       0       001010001D    281
     120       0       0       1       0                               0D    282
     124     200       0       0       0       0       0       001020201D    283
     124       0       0       3       0                               0D    284
     100     203       0       0       0       0     283       001010001D    285
     100       0       0       1       0                               0D    286
     110     204       0       0       0       0       0       001010001D    287
     110       0       0       1       0                               0D    288
     124     205       0       0       0       0       0       001020201D    289
     124       0       0       4       0                               0D    290
     100     209       0       0       0       0     289       001010001D    291
     100       0       0       1       0                               0D    292
     110     210       0       0       0       0       0       001010001D    293
     110       0       0       2       0                               0D    294
     102     212       0       0       0       0       0       001010001D    295
     102       0       0       1       0                               0D    296
     142     213       0       0       0       0       0       001010001D    297
     142       0       0       1       0                               0D    298
     144     214       0       0   10000       0       0       000000000D    299
     144       0       0       1       0                               0D    300
     110     215       0       0       0       0       0       001010001D    301
     110       0       0       1       0                               0D    302
     110     216       0       0       0       0       0       001010001D    303
     110       0       0       2       0                               0D    304
     120     218       0       0       0       0       0       001010001D    305
     120       0       0       1       0                               0D    306
     124     219       0       0       0       0       0       001020201D    307
     124       0       0       3       0                               0D    308
     100     222       0       0       0       0     307       001010001D    309
     100       0       0       1       0                               0D    310
     110     223       0       0       0       0       0       001010001D    311
     110       0       0       2       0                               0D    312
     124     225       0       0       0       0       0       001020201D    313
     124       0       0       3       0                               0D    314
     100     228       0       0       0       0     313       001010001D    315
     100       0       0       1       0                               0D    316
     110     229       0       0       0       0       0       001010001D    317
     110       0       0       1       0                               0D    318
     102     230       0       0       0       0       0       001010001D    319
     102       0       0       1       0                               0D    320
     142     231       0       0       0       0       0       001010001D    321
     142       0       0       1       0                               0D    322
     144     232       0       0   10000       0       0       000000000D    323
     144       0       0       1       0                               0D    324
110,11.0,0.0,0.0,12.0,0.0,0.0,0,0;                                     1P      1
110,0.0,3.510330248,1.917702154,22.0,3.510330248,1.917702154,0,        3P      2
0;                                                                     3P      3
120,1,3,0.0,6.283185307,0,0;                                           5P      4
110,0.0,-3.510330248,-1.917702154,22.0,-3.510330248,                   7P      5
-1.917702154,0,0;                                                      7P      6
124,0.0,0.0,-1.0,22.0,-0.8775825619,-0.4794255386,0.0,0.0,             9P      7
-0.4794255386,0.8775825619,0.0,0.0,0,0;                                9P      8
100,0.0,0.0,0.0,4.0,0.0,-4.0,2.220446049E-016,0,0;                    11P      9
110,22.0,3.510330248,1.917702154,0.0,3.510330248,1.917702154,0,       13P     10
0;                                                                    13P     11
124,0.0,0.0,1.0,0.0,0.8775825619,-0.4794255386,0.0,0.0,               15P     12
0.4794255386,0.8775825619,0.0,0.0,0,0;                                15P     13
100,0.0,0.0,0.0,4.0,0.0,-4.0,4.440892099E-016,0,0;                    17P     14
102,4,7,11,13,17,0,0;                                                 19P     15
142,0,5,0,19,2,0,0;                                                   21P     16
144,5,1,0,21,0,0;                                                     23P     17
110,11.0,0.0,0.0,12.0,0.0,0.0,0,0;                                    25P     18
110,0.0,-3.510330248,-1.917702154,22.0,-3.510330248,                  27P     19
-1.917702154,0,0;                                                     27P     20
120,25,27,0.0,6.283185307,0,0;                                        29P     21
110,0.0,3.510330248,1.917702154,22.0,3.510330248,1.917702154,0,       31P     22
0;                                                                    31P     23
124,0.0,0.0,-1.0,22.0,0.8775825619,0.4794255386,0.0,0.0,              33P     24
0.4794255386,-0.8775825619,0.0,0.0,0,0;                               33P     25
100,0.0,0.0,0.0,4.0,0.0,-4.0,-4.440892099E-016,0,0;                   35P     26
110,22.0,-3.510330248,-1.917702154,0.0,-3.510330248,                  37P     27
-1.917702154,0,0;                                                     37P     28
124,0.0,0.0,1.0,0.0,-0.8775825619,0.4794255386,0.0,0.0,               39P     29
-0.4794255386,-0.8775825619,0.0,0.0,0,0;                              39P     30
100,0.0,0.0,0.0,4.0,0.0,-4.0,-2.220446049E-016,0,0;                   41P     31
102,4,31,35,37,41,0,0;                                                43P     32
142,0,29,0,43,2,0,0;                                                  45P     33
144,29,1,0,45,0,0;                                                    47P     34
108,1.0,0.0,0.0,4.0,0,4.0,6.0,0.0,1.0,0,0;                            49P     35
124,0.0,0.0,-1.0,4.0,-0.8775825619,-0.4794255386,0.0,0.0,             51P     36
-0.4794255386,0.8775825619,0.0,0.0,0,0;                               51P     37
100,0.0,0.0,0.0,8.0,0.0,-8.0,4.440892099E-016,0,0;                    53P     38
124,0.0,0.0,-1.0,4.0,0.8775825619,0.4794255386,0.0,0.0,               55P     39
0.4794255386,-0.8775825619,0.0,0.0,0,0;                               55P     40
100,0.0,0.0,0.0,8.0,0.0,-8.0,-8.881784197E-016,0,0;                   57P     41
102,2,53,57,0,0;                                                      59P     42
142,0,49,0,59,2,0,0;                                                  61P     43
124,0.0,0.0,1.0,4.0,-0.8775825619,0.4794255386,0.0,0.0,               63P     44
-0.4794255386,-0.8775825619,0.0,0.0,0,0;                              63P     45
100,0.0,0.0,0.0,6.0,0.0,-6.0,-6.661338148E-016,0,0;                   65P     46
124,0.0,0.0,1.0,4.0,0.8775825619,-0.4794255386,0.0,0.0,               67P     47
0.4794255386,0.8775825619,0.0,0.0,0,0;                                67P     48
100,0.0,0.0,0.0,6.0,0.0,-6.0,6.661338148E-016,0,0;                    69P     49
102,2,65,69,0,0;                                                      71P     50
142,0,49,0,71,2,0,0;                                                  73P     51
144,49,1,1,61,73,0,0;                                                 75P     52
110,11.0,0.0,0.0,12.0,0.0,0.0,0,0;                                    77P     53
110,4.0,5.265495371,2.876553232,21.0,5.265495371,2.876553232,0,       79P     54
0;                                                                    79P     55
120,77,79,0.0,6.283185307,0,0;                                        81P     56
124,0.0,0.0,1.0,21.0,0.8775825619,-0.4794255386,0.0,0.0,              83P     57
0.4794255386,0.8775825619,0.0,0.0,0,0;                                83P     58
100,0.0,0.0,0.0,6.0,0.0,-6.0,-9.992007222E-016,0,0;                   85P     59
110,21.0,-5.265495371,-2.876553232,4.0,-5.265495371,                  87P     60
-2.876553232,0,0;                                                     87P     61
124,0.0,0.0,-1.0,4.0,-0.8775825619,-0.4794255386,0.0,0.0,             89P     62
-0.4794255386,0.8775825619,0.0,0.0,0,0;                               89P     63
100,0.0,0.0,0.0,6.0,0.0,-6.0,6.661338148E-016,0,0;                    91P     64
110,4.0,5.265495371,2.876553232,21.0,5.265495371,2.876553232,0,       93P     65
0;                                                                    93P     66
102,4,85,87,91,93,0,0;                                                95P     67
142,0,81,0,95,2,0,0;                                                  97P     68
144,81,1,0,97,0,0;                                                    99P     69
110,11.0,0.0,0.0,12.0,0.0,0.0,0,0;                                   101P     70
110,4.0,-5.265495371,-2.876553232,21.0,-5.265495371,                 103P     71
-2.876553232,0,0;                                                    103P     72
120,101,103,0.0,6.283185307,0,0;                                     105P     73
124,-5.921189465E-016,0.0,1.0,21.0,-0.8775825619,0.4794255386,       107P     74
0.0,0.0,-0.4794255386,-0.8775825619,0.0,0.0,0,0;                     107P     75
100,0.0,0.0,0.0,6.0,0.0,-6.0,9.992007222E-016,0,0;                   109P     76
110,21.0,5.265495371,2.876553232,4.0,5.265495371,2.876553232,0,      111P     77
0;                                                                   111P     78
124,0.0,0.0,-1.0,4.0,0.8775825619,0.4794255386,0.0,0.0,              113P     79
0.4794255386,-0.8775825619,0.0,0.0,0,0;                              113P     80
100,0.0,0.0,0.0,6.0,0.0,-6.0,-6.661338148E-016,0,0;                  115P     81
110,4.0,-5.265495371,-2.876553232,21.0,-5.265495371,                 117P     82
-2.876553232,0,0;                                                    117P     83
102,4,109,111,115,117,0,0;                                           119P     84
142,0,105,0,119,2,0,0;                                               121P     85
144,105,1,0,121,0,0;                                                 123P     86
108,1.0,0.0,0.0,22.0,0,22.0,4.0,0.0,1.0,0,0;                         125P     87
124,0.0,0.0,-1.0,22.0,-0.8775825344,-0.4794255889,0.0,0.0,           127P     88
-0.4794255889,0.8775825344,0.0,-1.33226763E-015,0,0;                 127P     89
100,0.0,0.0,0.0,5.0,0.0,-5.0,-2.865248808E-007,0,0;                  129P     90
124,0.0,0.0,-1.0,22.0,0.8775825619,0.4794255386,0.0,                 131P     91
-3.552713679E-015,0.4794255386,-0.8775825619,0.0,                    131P     92
-1.33226763E-015,0,0;                                                131P     93
100,0.0,0.0,0.0,5.0,0.0,-5.0,2.865248841E-007,0,0;                   133P     94
102,2,129,133,0,0;                                                   135P     95
142,0,125,0,135,2,0,0;                                               137P     96
124,0.0,0.0,1.0,22.0,-0.8775825619,0.4794255386,0.0,0.0,             139P     97
-0.4794255386,-0.8775825619,0.0,0.0,0,0;                             139P     98
100,0.0,0.0,0.0,4.0,0.0,-4.0,-2.220446049E-016,0,0;                  141P     99
124,0.0,0.0,1.0,22.0,0.8775825619,-0.4794255386,0.0,0.0,             143P    100
0.4794255386,0.8775825619,0.0,0.0,0,0;                               143P    101
100,0.0,0.0,0.0,4.0,0.0,-4.0,4.440892099E-016,0,0;                   145P    102
102,2,141,145,0,0;                                                   147P    103
142,0,125,0,147,2,0,0;                                               149P    104
144,125,1,1,137,149,0,0;                                             151P    105
110,27.0,-1.310063169E-014,-1.953992523E-014,28.0,                   153P    106
-1.532107774E-014,-2.309263891E-014,0,0;                             153P    107
110,22.0,-4.387912809,-2.397127693,21.0,-5.265495371,                155P    108
-2.876553232,0,0;                                                    155P    109
120,153,155,0.0,3.141592654,0,0;                                     157P    110
124,-1.421085472E-015,-3.120218619E-015,1.0,22.0,-0.8775825344,      159P    111
0.4794255889,-4.490225024E-017,-1.998401444E-015,-0.4794255889,      159P    112
-0.8775825344,-3.580000494E-015,-1.776356839E-015,0,0;               159P    113
100,0.0,0.0,0.0,5.0,0.0,-5.0,2.865248816E-007,0,0;                   161P    114
110,22.0,4.387912809,2.397127693,21.0,5.265495371,2.876553232,0,     163P    115
0;                                                                   163P    116
124,-2.368475786E-015,-3.12021872E-015,-1.0,21.0,0.8775825619,       165P    117
0.4794255386,4.490225024E-017,2.220446049E-016,0.4794255386,         165P    118
-0.8775825619,3.580000494E-015,1.776356839E-015,0,0;                 165P    119
100,0.0,0.0,0.0,6.0,0.0,-6.0,3.663735981E-015,0,0;                   167P    120
110,21.0,-5.265495371,-2.876553232,22.0,-4.387912672,                169P    121
-2.397127944,0,0;                                                    169P    122
102,4,161,163,167,169,0,0;                                           171P    123
142,0,157,0,171,2,0,0;                                               173P    124
144,157,1,0,173,0,0;                                                 175P    125
110,27.0,-1.598721155E-014,-1.776356839E-015,28.0,                   177P    126
-1.887379142E-014,-1.776356839E-015,0,0;                             177P    127
110,22.0,4.387912809,2.397127693,21.0,5.265495371,2.876553232,0,     179P    128
0;                                                                   179P    129
120,177,179,0.0,3.141592654,0,0;                                     181P    130
124,2.842170943E-015,-1.383900106E-015,1.0,22.0,0.8775825619,        183P    131
-0.4794255386,-6.634770537E-016,-1.554312234E-015,0.4794255386,      183P    132
0.8775825619,1.2144866E-015,-1.776356839E-015,0,0;                   183P    133
100,0.0,0.0,0.0,5.0,0.0,-5.0,-2.865248819E-007,0,0;                  185P    134
110,22.0,-4.387912672,-2.397127944,21.0,-5.265495371,                187P    135
-2.876553232,0,0;                                                    187P    136
124,1.776356839E-015,-1.383900106E-015,-1.0,21.0,-0.8775825619,      189P    137
-0.4794255386,6.634770537E-016,1.33226763E-015,-0.4794255386,        189P    138
0.8775825619,-1.2144866E-015,-1.776356839E-015,0,0;                  189P    139
100,0.0,0.0,0.0,6.0,0.0,-6.0,3.996802889E-015,0,0;                   191P    140
110,21.0,5.265495371,2.876553232,22.0,4.387912809,2.397127693,0,     193P    141
0;                                                                   193P    142
102,4,185,187,191,193,0,0;                                           195P    143
142,0,181,0,195,2,0,0;                                               197P    144
144,181,1,0,197,0,0;                                                 199P    145
110,11.0,0.0,0.0,12.0,0.0,0.0,0,0;                                   201P    146
110,1.0,7.020660495,3.835404309,4.0,7.020660495,3.835404309,0,0;     203P    147
120,201,203,0.0,6.283185307,0,0;                                     205P    148
124,0.0,0.0,-1.0,1.0,-0.8775825619,-0.4794255386,0.0,0.0,            207P    149
-0.4794255386,0.8775825619,0.0,0.0,0,0;                              207P    150
100,0.0,0.0,0.0,8.0,0.0,-8.0,-1.33226763E-015,0,0;                   209P    151
110,1.0,7.020660495,3.835404309,4.0,7.020660495,3.835404309,0,0;     211P    152
124,0.0,0.0,1.0,4.0,0.8775825619,-0.4794255386,0.0,0.0,              213P    153
0.4794255386,0.8775825619,0.0,0.0,0,0;                               213P    154
100,0.0,0.0,0.0,8.0,0.0,-8.0,8.881784197E-016,0,0;                   215P    155
110,4.0,-7.020660495,-3.835404309,1.0,-7.020660495,-3.835404309,     217P    156
0,0;                                                                 217P    157
102,4,209,211,215,217,0,0;                                           219P    158
142,0,205,0,219,2,0,0;                                               221P    159
144,205,1,0,221,0,0;                                                 223P    160
110,11.0,0.0,0.0,12.0,0.0,0.0,0,0;                                   225P    161
110,1.0,-7.020660495,-3.835404309,4.0,-7.020660495,-3.835404309,     227P    162
0,0;                                                                 227P    163
120,225,227,0.0,6.283185307,0,0;                                     229P    164
124,0.0,0.0,-1.0,1.0,0.8775825619,0.4794255386,0.0,0.0,              231P    165
0.4794255386,-0.8775825619,0.0,0.0,0,0;                              231P    166
100,0.0,0.0,0.0,8.0,0.0,-8.0,8.881784197E-016,0,0;                   233P    167
110,1.0,-7.020660495,-3.835404309,4.0,-7.020660495,-3.835404309,     235P    168
0,0;                                                                 235P    169
124,0.0,0.0,1.0,4.0,-0.8775825619,0.4794255386,0.0,0.0,              237P    170
-0.4794255386,-0.8775825619,0.0,0.0,0,0;                             237P    171
100,0.0,0.0,0.0,8.0,0.0,-8.0,-4.440892099E-016,0,0;                  239P    172
110,4.0,7.020660495,3.835404309,1.0,7.020660495,3.835404309,0,0;     241P    173
102,4,233,235,239,241,0,0;                                           243P    174
142,0,229,0,243,2,0,0;                                               245P    175
144,229,1,0,245,0,0;                                                 247P    176
108,1.0,0.0,0.0,0.0,0,0.0,8.0,0.0,1.0,0,0;                           249P    177
124,0.0,0.0,1.0,0.0,-0.8775825622,0.4794255381,0.0,0.0,              251P    178
-0.4794255381,-0.8775825622,0.0,8.881784197E-016,0,0;                251P    179
100,0.0,0.0,0.0,7.0,0.0,-7.0,-3.84366533E-009,0,0;                   253P    180
124,0.0,0.0,1.0,0.0,0.8775825619,-0.4794255386,0.0,0.0,              255P    181
0.4794255386,0.8775825619,0.0,-4.440892099E-016,0,0;                 255P    182
100,0.0,0.0,0.0,7.0,0.0,-7.0,3.843667273E-009,0,0;                   257P    183
102,2,253,257,0,0;                                                   259P    184
142,0,249,0,259,2,0,0;                                               261P    185
124,0.0,0.0,-1.0,0.0,-0.8775825619,-0.4794255386,0.0,0.0,            263P    186
-0.4794255386,0.8775825619,0.0,0.0,0,0;                              263P    187
100,0.0,0.0,0.0,4.0,0.0,-4.0,2.220446049E-016,0,0;                   265P    188
124,0.0,0.0,-1.0,0.0,0.8775825619,0.4794255386,0.0,0.0,              267P    189
0.4794255386,-0.8775825619,0.0,0.0,0,0;                              267P    190
100,0.0,0.0,0.0,4.0,0.0,-4.0,-4.440892099E-016,0,0;                  269P    191
102,2,265,269,0,0;                                                   271P    192
142,0,249,0,271,2,0,0;                                               273P    193
144,249,1,1,261,273,0,0;                                             275P    194
110,-7.0,7.327471963E-015,-1.243449788E-014,-6.0,                    277P    195
6.217248938E-015,-1.065814104E-014,0,0;                              277P    196
110,1.065814104E-014,-6.143077931,-3.355978774,1.0,-7.020660493,     279P    197
-3.835404313,0,0;                                                    279P    198
120,277,279,0.0,3.141592653,0,0;                                     281P    199
124,-6.661338148E-016,1.788372936E-015,1.0,1.0,-0.8775825619,        283P    200
0.4794255386,-2.631922031E-016,-1.554312234E-015,-0.4794255386,      283P    201
-0.8775825619,1.894057544E-015,1.776356839E-015,0,0;                 283P    202
100,0.0,0.0,0.0,8.0,0.0,-8.0,6.217248938E-015,0,0;                   285P    203
110,1.0,7.020660495,3.835404309,0.0,6.143077933,3.35597877,0,0;      287P    204
124,-8.881784197E-016,1.788372936E-015,-1.0,6.217248938E-015,        289P    205
0.8775825619,0.4794255386,2.631922031E-016,-4.440892099E-016,        289P    206
0.4794255386,-0.8775825619,-1.894057544E-015,1.104405267E-029,0,     289P    207
0;                                                                   289P    208
100,0.0,0.0,0.0,7.0,0.0,-7.0,-3.843666108E-009,0,0;                  291P    209
110,0.0,-6.143077935,-3.355978767,1.0,-7.020660495,-3.835404309,     293P    210
0,0;                                                                 293P    211
102,4,285,287,291,293,0,0;                                           295P    212
142,0,281,0,295,2,0,0;                                               297P    213
144,281,1,0,297,0,0;                                                 299P    214
110,-7.0,0.0,1.865174681E-014,-6.0,0.0,1.598721155E-014,0,0;         301P    215
110,-7.993605777E-015,6.143077933,3.35597877,1.0,7.020660495,        303P    216
3.835404309,0,0;                                                     303P    217
120,301,303,0.0,3.141592653,0,0;                                     305P    218
124,1.110223025E-015,2.338349679E-015,1.0,1.0,0.8775825619,          307P    219
-0.4794255386,1.121064554E-015,0.0,0.4794255386,0.8775825619,        307P    220
-2.052094902E-015,-2.664535259E-015,0,0;                             307P    221
100,0.0,0.0,0.0,8.0,0.0,-8.0,3.552713679E-015,0,0;                   309P    222
110,1.0,-7.020660495,-3.835404309,0.0,-6.143077935,-3.355978767,     311P    223
0,0;                                                                 311P    224
124,1.141943682E-015,2.338349679E-015,-1.0,-7.993605777E-015,        313P    225
-0.8775825622,-0.4794255381,-1.121064554E-015,0.0,-0.4794255381,     313P    226
0.8775825622,2.052094902E-015,2.208810535E-029,0,0;                  313P    227
100,0.0,0.0,0.0,7.0,0.0,-7.0,3.843666885E-009,0,0;                   315P    228
110,0.0,6.143077933,3.35597877,1.0,7.020660495,3.835404309,0,0;      317P    229
102,4,309,311,315,317,0,0;                                           319P    230
142,0,305,0,319,2,0,0;                                               321P    231
144,305,1,0,321,0,0;                                                 323P    232
S      1G      4D    324P    232                                        T      1
