                                                                        S0000001
,,31HOpen CASCADE IGES processor 7.9,13HFilename.iges,                  G0000001
16HOpen CASCADE 7.9,31HOpen CASCADE IGES processor 7.9,32,308,15,308,15,G0000002
,1.,2,2HMM,1,0.01,15H20260818.144649,1E-07,372.8,5Hadmin,,11,0,         G0000003
15H20260818.144649,;                                                    G0000004
     402       1       0       0       0       0       0       000000000D0000001
     402       0       0       1       1                               0D0000002
     402       2       0       0       0       0       0       000020000D0000003
     402       0       0       1       1                               0D0000004
     144       3       0       0       0       0       0       000020000D0000005
     144       0       0       1       0                               0D0000006
     108       4       0       0       0       0       0       000010000D0000007
     108       0       0       1       0                               0D0000008
     142       5       0       0       0       0       0       000010500D0000009
     142       0       0       1       0                               0D0000010
     102       6       0       0       0       0       0       000010000D0000011
     102       0       0       1       0                               0D0000012
     110       7       0       0       0       0       0       000010000D0000013
     110       0       0       1       0                               0D0000014
     110       8       0       0       0       0       0       000010000D0000015
     110       0       0       1       0                               0D0000016
     110       9       0       0       0       0       0       000010000D0000017
     110       0       0       1       0                               0D0000018
     110      10       0       0       0       0       0       000010000D0000019
     110       0       0       1       0                               0D0000020
     144      11       0       0       0       0       0       000020000D0000021
     144       0       0       1       0                               0D0000022
     108      12       0       0       0       0       0       000010000D0000023
     108       0       0       1       0                               0D0000024
     142      13       0       0       0       0       0       000010500D0000025
     142       0       0       1       0                               0D0000026
     102      14       0       0       0       0       0       000010000D0000027
     102       0       0       1       0                               0D0000028
     110      15       0       0       0       0       0       000010000D0000029
     110       0       0       1       0                               0D0000030
     110      16       0       0       0       0       0       000010000D0000031
     110       0       0       1       0                               0D0000032
     110      17       0       0       0       0       0       000010000D0000033
     110       0       0       1       0                               0D0000034
     110      18       0       0       0       0       0       000010000D0000035
     110       0       0       1       0                               0D0000036
     144      19       0       0       0       0       0       000020000D0000037
     144       0       0       1       0                               0D0000038
     108      20       0       0       0       0       0       000010000D0000039
     108       0       0       1       0                               0D0000040
     142      21       0       0       0       0       0       000010500D0000041
     142       0       0       1       0                               0D0000042
     102      22       0       0       0       0       0       000010000D0000043
     102       0       0       1       0                               0D0000044
     110      23       0       0       0       0       0       000010000D0000045
     110       0       0       1       0                               0D0000046
     110      24       0       0       0       0       0       000010000D0000047
     110       0       0       1       0                               0D0000048
     110      25       0       0       0       0       0       000010000D0000049
     110       0       0       1       0                               0D0000050
     110      26       0       0       0       0       0       000010000D0000051
     110       0       0       1       0                               0D0000052
     144      27       0       0       0       0       0       000020000D0000053
     144       0       0       1       0                               0D0000054
     108      28       0       0       0       0       0       000010000D0000055
     108       0       0       1       0                               0D0000056
     142      29       0       0       0       0       0       000010500D0000057
     142       0       0       1       0                               0D0000058
     102      30       0       0       0       0       0       000010000D0000059
     102       0       0       1       0                               0D0000060
     110      31       0       0       0       0       0       000010000D0000061
     110       0       0       1       0                               0D0000062
     110      32       0       0       0       0       0       000010000D0000063
     110       0       0       1       0                               0D0000064
     110      33       0       0       0       0       0       000010000D0000065
     110       0       0       1       0                               0D0000066
     110      34       0       0       0       0       0       000010000D0000067
     110       0       0       1       0                               0D0000068
     144      35       0       0       0       0       0       000020000D0000069
     144       0       0       1       0                               0D0000070
     108      36       0       0       0       0       0       000010000D0000071
     108       0       0       1       0                               0D0000072
     142      37       0       0       0       0       0       000010500D0000073
     142       0       0       1       0                               0D0000074
     102      38       0       0       0       0       0       000010000D0000075
     102       0       0       1       0                               0D0000076
     110      39       0       0       0       0       0       000010000D0000077
     110       0       0       1       0                               0D0000078
     110      40       0       0       0       0       0       000010000D0000079
     110       0       0       1       0                               0D0000080
     110      41       0       0       0       0       0       000010000D0000081
     110       0       0       1       0                               0D0000082
     110      42       0       0       0       0       0       000010000D0000083
     110       0       0       1       0                               0D0000084
     144      43       0       0       0       0       0       000020000D0000085
     144       0       0       1       0                               0D0000086
     108      44       0       0       0       0       0       000010000D0000087
     108       0       0       1       0                               0D0000088
     142      45       0       0       0       0       0       000010500D0000089
     142       0       0       1       0                               0D0000090
     102      46       0       0       0       0       0       000010000D0000091
     102       0       0       1       0                               0D0000092
     110      47       0       0       0       0       0       000010000D0000093
     110       0       0       1       0                               0D0000094
     110      48       0       0       0       0       0       000010000D0000095
     110       0       0       1       0                               0D0000096
     110      49       0       0       0       0       0       000010000D0000097
     110       0       0       1       0                               0D0000098
     110      50       0       0       0       0       0       000010000D0000099
     110       0       0       1       0                               0D0000100
     402      51       0       0       0       0       0       000020000D0000101
     402       0       0       1       1                               0D0000102
     144      52       0       0       0       0       0       000020000D0000103
     144       0       0       1       0                               0D0000104
     108      53       0       0       0       0       0       000010000D0000105
     108       0       0       1       0                               0D0000106
     142      54       0       0       0       0       0       000010500D0000107
     142       0       0       1       0                               0D0000108
     102      55       0       0       0       0       0       000010000D0000109
     102       0       0       1       0                               0D0000110
     110      56       0       0       0       0       0       000010000D0000111
     110       0       0       1       0                               0D0000112
     110      57       0       0       0       0       0       000010000D0000113
     110       0       0       1       0                               0D0000114
     110      58       0       0       0       0       0       000010000D0000115
     110       0       0       1       0                               0D0000116
     110      59       0       0       0       0       0       000010000D0000117
     110       0       0       1       0                               0D0000118
     144      60       0       0       0       0       0       000020000D0000119
     144       0       0       1       0                               0D0000120
     108      61       0       0       0       0       0       000010000D0000121
     108       0       0       1       0                               0D0000122
     142      62       0       0       0       0       0       000010500D0000123
     142       0       0       1       0                               0D0000124
     102      63       0       0       0       0       0       000010000D0000125
     102       0       0       1       0                               0D0000126
     110      64       0       0       0       0       0       000010000D0000127
     110       0       0       1       0                               0D0000128
     110      65       0       0       0       0       0       000010000D0000129
     110       0       0       1       0                               0D0000130
     110      66       0       0       0       0       0       000010000D0000131
     110       0       0       1       0                               0D0000132
     110      67       0       0       0       0       0       000010000D0000133
     110       0       0       1       0                               0D0000134
     144      68       0       0       0       0       0       000020000D0000135
     144       0       0       1       0                               0D0000136
     108      69       0       0       0       0       0       000010000D0000137
     108       0       0       1       0                               0D0000138
     142      70       0       0       0       0       0       000010500D0000139
     142       0       0       1       0                               0D0000140
     102      71       0       0       0       0       0       000010000D0000141
     102       0       0       1       0                               0D0000142
     110      72       0       0       0       0       0       000010000D0000143
     110       0       0       1       0                               0D0000144
     110      73       0       0       0       0       0       000010000D0000145
     110       0       0       1       0                               0D0000146
     110      74       0       0       0       0       0       000010000D0000147
     110       0       0       1       0                               0D0000148
     110      75       0       0       0       0       0       000010000D0000149
     110       0       0       1       0                               0D0000150
     144      76       0       0       0       0       0       000020000D0000151
     144       0       0       1       0                               0D0000152
     108      77       0       0       0       0       0       000010000D0000153
     108       0       0       1       0                               0D0000154
     142      78       0       0       0       0       0       000010500D0000155
     142       0       0       1       0                               0D0000156
     102      79       0       0       0       0       0       000010000D0000157
     102       0       0       1       0                               0D0000158
     110      80       0       0       0       0       0       000010000D0000159
     110       0       0       1       0                               0D0000160
     110      81       0       0       0       0       0       000010000D0000161
     110       0       0       1       0                               0D0000162
     110      82       0       0       0       0       0       000010000D0000163
     110       0       0       1       0                               0D0000164
     110      83       0       0       0       0       0       000010000D0000165
     110       0       0       1       0                               0D0000166
     144      84       0       0       0       0       0       000020000D0000167
     144       0       0       1       0                               0D0000168
     108      85       0       0       0       0       0       000010000D0000169
     108       0       0       1       0                               0D0000170
     142      86       0       0       0       0       0       000010500D0000171
     142       0       0       1       0                               0D0000172
     102      87       0       0       0       0       0       000010000D0000173
     102       0       0       1       0                               0D0000174
     110      88       0       0       0       0       0       000010000D0000175
     110       0       0       1       0                               0D0000176
     110      89       0       0       0       0       0       000010000D0000177
     110       0       0       1       0                               0D0000178
     110      90       0       0       0       0       0       000010000D0000179
     110       0       0       1       0                               0D0000180
     110      91       0       0       0       0       0       000010000D0000181
     110       0       0       1       0                               0D0000182
     144      92       0       0       0       0       0       000020000D0000183
     144       0       0       1       0                               0D0000184
     108      93       0       0       0       0       0       000010000D0000185
     108       0       0       1       0                               0D0000186
     142      94       0       0       0       0       0       000010500D0000187
     142       0       0       1       0                               0D0000188
     102      95       0       0       0       0       0       000010000D0000189
     102       0       0       1       0                               0D0000190
     110      96       0       0       0       0       0       000010000D0000191
     110       0       0       1       0                               0D0000192
     110      97       0       0       0       0       0       000010000D0000193
     110       0       0       1       0                               0D0000194
     110      98       0       0       0       0       0       000010000D0000195
     110       0       0       1       0                               0D0000196
     110      99       0       0       0       0       0       000010000D0000197
     110       0       0       1       0                               0D0000198
     402     100       0       0       0       0       0       000020000D0000199
     402       0       0       1       1                               0D0000200
     144     101       0       0       0       0       0       000020000D0000201
     144       0       0       1       0                               0D0000202
     108     102       0       0       0       0       0       000010000D0000203
     108       0       0       2       0                               0D0000204
     142     104       0       0       0       0       0       000010500D0000205
     142       0       0       1       0                               0D0000206
     102     105       0       0       0       0       0       000010000D0000207
     102       0       0       1       0                               0D0000208
     110     106       0       0       0       0       0       000010000D0000209
     110       0       0       1       0                               0D0000210
     110     107       0       0       0       0       0       000010000D0000211
     110       0       0       1       0                               0D0000212
     110     108       0       0       0       0       0       000010000D0000213
     110       0       0       2       0                               0D0000214
     110     110       0       0       0       0       0       000010000D0000215
     110       0       0       1       0                               0D0000216
     144     111       0       0       0       0       0       000020000D0000217
     144       0       0       1       0                               0D0000218
     108     112       0       0       0       0       0       000010000D0000219
     108       0       0       2       0                               0D0000220
     142     114       0       0       0       0       0       000010500D0000221
     142       0       0       1       0                               0D0000222
     102     115       0       0       0       0       0       000010000D0000223
     102       0       0       1       0                               0D0000224
     110     116       0       0       0       0       0       000010000D0000225
     110       0       0       2       0                               0D0000226
     110     118       0       0       0       0       0       000010000D0000227
     110       0       0       2       0                               0D0000228
     110     120       0       0       0       0       0       000010000D0000229
     110       0       0       2       0                               0D0000230
     110     122       0       0       0       0       0       000010000D0000231
     110       0       0       2       0                               0D0000232
     144     124       0       0       0       0       0       000020000D0000233
     144       0       0       1       0                               0D0000234
     108     125       0       0       0       0       0       000010000D0000235
     108       0       0       1       0                               0D0000236
     142     126       0       0       0       0       0       000010500D0000237
     142       0       0       1       0                               0D0000238
     102     127       0       0       0       0       0       000010000D0000239
     102       0       0       1       0                               0D0000240
     110     128       0       0       0       0       0       000010000D0000241
     110       0       0       1       0                               0D0000242
     110     129       0       0       0       0       0       000010000D0000243
     110       0       0       1       0                               0D0000244
     110     130       0       0       0       0       0       000010000D0000245
     110       0       0       2       0                               0D0000246
     110     132       0       0       0       0       0       000010000D0000247
     110       0       0       2       0                               0D0000248
     144     134       0       0       0       0       0       000020000D0000249
     144       0       0       1       0                               0D0000250
     108     135       0       0       0       0       0       000010000D0000251
     108       0       0       1       0                               0D0000252
     142     136       0       0       0       0       0       000010500D0000253
     142       0       0       1       0                               0D0000254
     102     137       0       0       0       0       0       000010000D0000255
     102       0       0       1       0                               0D0000256
     110     138       0       0       0       0       0       000010000D0000257
     110       0       0       1       0                               0D0000258
     110     139       0       0       0       0       0       000010000D0000259
     110       0       0       1       0                               0D0000260
     110     140       0       0       0       0       0       000010000D0000261
     110       0       0       2       0                               0D0000262
     110     142       0       0       0       0       0       000010000D0000263
     110       0       0       2       0                               0D0000264
     144     144       0       0       0       0       0       000020000D0000265
     144       0       0       1       0                               0D0000266
     108     145       0       0       0       0       0       000010000D0000267
     108       0       0       2       0                               0D0000268
     142     147       0       0       0       0       0       000010500D0000269
     142       0       0       1       0                               0D0000270
     102     148       0       0       0       0       0       000010000D0000271
     102       0       0       1       0                               0D0000272
     110     149       0       0       0       0       0       000010000D0000273
     110       0       0       1       0                               0D0000274
     110     150       0       0       0       0       0       000010000D0000275
     110       0       0       1       0                               0D0000276
     110     151       0       0       0       0       0       000010000D0000277
     110       0       0       1       0                               0D0000278
     110     152       0       0       0       0       0       000010000D0000279
     110       0       0       2       0                               0D0000280
     144     154       0       0       0       0       0       000020000D0000281
     144       0       0       1       0                               0D0000282
     108     155       0       0       0       0       0       000010000D0000283
     108       0       0       2       0                               0D0000284
     142     157       0       0       0       0       0       000010500D0000285
     142       0       0       1       0                               0D0000286
     102     158       0       0       0       0       0       000010000D0000287
     102       0       0       1       0                               0D0000288
     110     159       0       0       0       0       0       000010000D0000289
     110       0       0       2       0                               0D0000290
     110     161       0       0       0       0       0       000010000D0000291
     110       0       0       2       0                               0D0000292
     110     163       0       0       0       0       0       000010000D0000293
     110       0       0       2       0                               0D0000294
     110     165       0       0       0       0       0       000010000D0000295
     110       0       0       2       0                               0D0000296
     402     167       0       0       0       0       0       000020000D0000297
     402       0       0       1       1                               0D0000298
     144     168       0       0       0       0       0       000020000D0000299
     144       0       0       1       0                               0D0000300
     120     169       0       0       0       0     303       000010000D0000301
     120       0       0       1       0                               0D0000302
     124     170       0       0       0       0       0       000000000D0000303
     124       0       0       1       0                               0D0000304
     110     171       0       0       0       0       0       000010000D0000305
     110       0       0       1       0                               0D0000306
     110     172       0       0       0       0       0       000010000D0000307
     110       0       0       1       0                               0D0000308
     142     173       0       0       0       0       0       000010500D0000309
     142       0       0       1       0                               0D0000310
     102     174       0       0       0       0       0       000010000D0000311
     102       0       0       1       0                               0D0000312
     110     175       0       0       0       0       0       000010000D0000313
     110       0       0       1       0                               0D0000314
     110     176       0       0       0       0       0       000010000D0000315
     110       0       0       1       0                               0D0000316
     110     177       0       0       0       0       0       000010000D0000317
     110       0       0       1       0                               0D0000318
     110     178       0       0       0       0       0       000010000D0000319
     110       0       0       1       0                               0D0000320
     102     179       0       0       0       0       0       000010000D0000321
     102       0       0       1       0                               0D0000322
     100     180       0       0       0       0     325       000010000D0000323
     100       0       0       1       0                               0D0000324
     124     181       0       0       0       0       0       000000000D0000325
     124       0       0       1       0                               0D0000326
     110     182       0       0       0       0       0       000010000D0000327
     110       0       0       1       0                               0D0000328
     100     183       0       0       0       0     331       000010000D0000329
     100       0       0       1       0                               0D0000330
     124     184       0       0       0       0       0       000000000D0000331
     124       0       0       1       0                               0D0000332
     110     185       0       0       0       0       0       000010000D0000333
     110       0       0       1       0                               0D0000334
     144     186       0       0       0       0       0       000020000D0000335
     144       0       0       1       0                               0D0000336
     108     187       0       0       0       0       0       000010000D0000337
     108       0       0       1       0                               0D0000338
     142     188       0       0       0       0       0       000010500D0000339
     142       0       0       1       0                               0D0000340
     100     189       0       0       0       0     343       000010000D0000341
     100       0       0       1       0                               0D0000342
     124     190       0       0       0       0       0       000000000D0000343
     124       0       0       1       0                               0D0000344
     144     191       0       0       0       0       0       000020000D0000345
     144       0       0       1       0                               0D0000346
     108     192       0       0       0       0       0       000010000D0000347
     108       0       0       1       0                               0D0000348
     142     193       0       0       0       0       0       000010500D0000349
     142       0       0       1       0                               0D0000350
     100     194       0       0       0       0     353       000010000D0000351
     100       0       0       1       0                               0D0000352
     124     195       0       0       0       0       0       000000000D0000353
     124       0       0       1       0                               0D0000354
     402     196       0       0       0       0       0       000020000D0000355
     402       0       0       1       1                               0D0000356
     144     197       0       0       0       0       0       000020000D0000357
     144       0       0       1       0                               0D0000358
     120     198       0       0       0       0     361       000010000D0000359
     120       0       0       1       0                               0D0000360
     124     199       0       0       0       0       0       000000000D0000361
     124       0       0       1       0                               0D0000362
     110     200       0       0       0       0       0       000010000D0000363
     110       0       0       1       0                               0D0000364
     110     201       0       0       0       0       0       000010000D0000365
     110       0       0       1       0                               0D0000366
     142     202       0       0       0       0       0       000010500D0000367
     142       0       0       1       0                               0D0000368
     102     203       0       0       0       0       0       000010000D0000369
     102       0       0       1       0                               0D0000370
     110     204       0       0       0       0       0       000010000D0000371
     110       0       0       1       0                               0D0000372
     110     205       0       0       0       0       0       000010000D0000373
     110       0       0       1       0                               0D0000374
     110     206       0       0       0       0       0       000010000D0000375
     110       0       0       1       0                               0D0000376
     110     207       0       0       0       0       0       000010000D0000377
     110       0       0       1       0                               0D0000378
     102     208       0       0       0       0       0       000010000D0000379
     102       0       0       1       0                               0D0000380
     100     209       0       0       0       0     383       000010000D0000381
     100       0       0       1       0                               0D0000382
     124     210       0       0       0       0       0       000000000D0000383
     124       0       0       1       0                               0D0000384
     110     211       0       0       0       0       0       000010000D0000385
     110       0       0       1       0                               0D0000386
     100     212       0       0       0       0     389       000010000D0000387
     100       0       0       1       0                               0D0000388
     124     213       0       0       0       0       0       000000000D0000389
     124       0       0       1       0                               0D0000390
     110     214       0       0       0       0       0       000010000D0000391
     110       0       0       1       0                               0D0000392
     144     215       0       0       0       0       0       000020000D0000393
     144       0       0       1       0                               0D0000394
     108     216       0       0       0       0       0       000010000D0000395
     108       0       0       1       0                               0D0000396
     142     217       0       0       0       0       0       000010500D0000397
     142       0       0       1       0                               0D0000398
     100     218       0       0       0       0     401       000010000D0000399
     100       0       0       1       0                               0D0000400
     124     219       0       0       0       0       0       000000000D0000401
     124       0       0       1       0                               0D0000402
     144     220       0       0       0       0       0       000020000D0000403
     144       0       0       1       0                               0D0000404
     108     221       0       0       0       0       0       000010000D0000405
     108       0       0       1       0                               0D0000406
     142     222       0       0       0       0       0       000010500D0000407
     142       0       0       1       0                               0D0000408
     100     223       0       0       0       0     411       000010000D0000409
     100       0       0       1       0                               0D0000410
     124     224       0       0       0       0       0       000000000D0000411
     124       0       0       1       0                               0D0000412
     402     225       0       0       0       0       0       000020000D0000413
     402       0       0       1       1                               0D0000414
     144     226       0       0       0       0       0       000020000D0000415
     144       0       0       1       0                               0D0000416
     120     227       0       0       0       0     419       000010000D0000417
     120       0       0       1       0                               0D0000418
     124     228       0       0       0       0       0       000000000D0000419
     124       0       0       1       0                               0D0000420
     110     229       0       0       0       0       0       000010000D0000421
     110       0       0       1       0                               0D0000422
     110     230       0       0       0       0       0       000010000D0000423
     110       0       0       1       0                               0D0000424
     142     231       0       0       0       0       0       000010500D0000425
     142       0       0       1       0                               0D0000426
     102     232       0       0       0       0       0       000010000D0000427
     102       0       0       1       0                               0D0000428
     110     233       0       0       0       0       0       000010000D0000429
     110       0       0       1       0                               0D0000430
     110     234       0       0       0       0       0       000010000D0000431
     110       0       0       1       0                               0D0000432
     110     235       0       0       0       0       0       000010000D0000433
     110       0       0       1       0                               0D0000434
     110     236       0       0       0       0       0       000010000D0000435
     110       0       0       1       0                               0D0000436
     102     237       0       0       0       0       0       000010000D0000437
     102       0       0       1       0                               0D0000438
     100     238       0       0       0       0     441       000010000D0000439
     100       0       0       1       0                               0D0000440
     124     239       0       0       0       0       0       000000000D0000441
     124       0       0       1       0                               0D0000442
     110     240       0       0       0       0       0       000010000D0000443
     110       0       0       1       0                               0D0000444
     100     241       0       0       0       0     447       000010000D0000445
     100       0       0       1       0                               0D0000446
     124     242       0       0       0       0       0       000000000D0000447
     124       0       0       1       0                               0D0000448
     110     243       0       0       0       0       0       000010000D0000449
     110       0       0       1       0                               0D0000450
     144     244       0       0       0       0       0       000020000D0000451
     144       0       0       1       0                               0D0000452
     108     245       0       0       0       0       0       000010000D0000453
     108       0       0       1       0                               0D0000454
     142     246       0       0       0       0       0       000010500D0000455
     142       0       0       1       0                               0D0000456
     100     247       0       0       0       0     459       000010000D0000457
     100       0       0       1       0                               0D0000458
     124     248       0       0       0       0       0       000000000D0000459
     124       0       0       1       0                               0D0000460
     144     249       0       0       0       0       0       000020000D0000461
     144       0       0       1       0                               0D0000462
     108     250       0       0       0       0       0       000010000D0000463
     108       0       0       1       0                               0D0000464
     142     251       0       0       0       0       0       000010500D0000465
     142       0       0       1       0                               0D0000466
     100     252       0       0       0       0     469       000010000D0000467
     100       0       0       1       0                               0D0000468
     124     253       0       0       0       0       0       000000000D0000469
     124       0       0       1       0                               0D0000470
402,6,3,101,199,297,355,413;                                     0000001P0000001
402,6,5,21,37,53,69,85;                                          0000003P0000002
144,7,1,0,9;                                                     0000005P0000003
108,-1.,-0.,0.,69.6,0,-69.6,-21.,-30.,0.;                        0000007P0000004
142,0,7,0,11,2;                                                  0000009P0000005
102,4,13,15,17,19;                                               0000011P0000006
110,-69.6,21.,-30.,-69.6,-21.,-30.;                              0000013P0000007
110,-69.6,-21.,-30.,-69.6,-21.,30.;                              0000015P0000008
110,-69.6,-21.,30.,-69.6,21.,30.;                                0000017P0000009
110,-69.6,21.,30.,-69.6,21.,-30.;                                0000019P0000010
144,23,1,0,25;                                                   0000021P0000011
108,1.,0.,-0.,50.4,0,50.4,-21.,-30.,0.;                          0000023P0000012
142,0,23,0,27,2;                                                 0000025P0000013
102,4,29,31,33,35;                                               0000027P0000014
110,50.4,-21.,30.,50.4,-21.,-30.;                                0000029P0000015
110,50.4,-21.,-30.,50.4,21.,-30.;                                0000031P0000016
110,50.4,21.,-30.,50.4,21.,30.;                                  0000033P0000017
110,50.4,21.,30.,50.4,-21.,30.;                                  0000035P0000018
144,39,1,0,41;                                                   0000037P0000019
108,0.,-1.,-0.,21.,0,-69.6,-21.,-30.,0.;                         0000039P0000020
142,0,39,0,43,2;                                                 0000041P0000021
102,4,45,47,49,51;                                               0000043P0000022
110,-69.6,-21.,30.,-69.6,-21.,-30.;                              0000045P0000023
110,-69.6,-21.,-30.,50.4,-21.,-30.;                              0000047P0000024
110,50.4,-21.,-30.,50.4,-21.,30.;                                0000049P0000025
110,50.4,-21.,30.,-69.6,-21.,30.;                                0000051P0000026
144,55,1,0,57;                                                   0000053P0000027
108,-0.,1.,0.,21.,0,-69.6,21.,-30.,0.;                           0000055P0000028
142,0,55,0,59,2;                                                 0000057P0000029
102,4,61,63,65,67;                                               0000059P0000030
110,50.4,21.,-30.,-69.6,21.,-30.;                                0000061P0000031
110,-69.6,21.,-30.,-69.6,21.,30.;                                0000063P0000032
110,-69.6,21.,30.,50.4,21.,30.;                                  0000065P0000033
110,50.4,21.,30.,50.4,21.,-30.;                                  0000067P0000034
144,71,1,0,73;                                                   0000069P0000035
108,-0.,-0.,-1.,30.,0,-69.6,-21.,-30.,0.;                        0000071P0000036
142,0,71,0,75,2;                                                 0000073P0000037
102,4,77,79,81,83;                                               0000075P0000038
110,50.4,-21.,-30.,-69.6,-21.,-30.;                              0000077P0000039
110,-69.6,-21.,-30.,-69.6,21.,-30.;                              0000079P0000040
110,-69.6,21.,-30.,50.4,21.,-30.;                                0000081P0000041
110,50.4,21.,-30.,50.4,-21.,-30.;                                0000083P0000042
144,87,1,0,89;                                                   0000085P0000043
108,0.,0.,1.,30.,0,-69.6,-21.,30.,0.;                            0000087P0000044
142,0,87,0,91,2;                                                 0000089P0000045
102,4,93,95,97,99;                                               0000091P0000046
110,-69.6,21.,30.,-69.6,-21.,30.;                                0000093P0000047
110,-69.6,-21.,30.,50.4,-21.,30.;                                0000095P0000048
110,50.4,-21.,30.,50.4,21.,30.;                                  0000097P0000049
110,50.4,21.,30.,-69.6,21.,30.;                                  0000099P0000050
402,6,103,119,135,151,167,183;                                   0000101P0000051
144,105,1,0,107;                                                 0000103P0000052
108,-1.,-0.,0.,96.,0,-96.,-24.78,-21.6,0.;                       0000105P0000053
142,0,105,0,109,2;                                               0000107P0000054
102,4,111,113,115,117;                                           0000109P0000055
110,-96.,24.78,-21.6,-96.,-24.78,-21.6;                          0000111P0000056
110,-96.,-24.78,-21.6,-96.,-24.78,21.6;                          0000113P0000057
110,-96.,-24.78,21.6,-96.,24.78,21.6;                            0000115P0000058
110,-96.,24.78,21.6,-96.,24.78,-21.6;                            0000117P0000059
144,121,1,0,123;                                                 0000119P0000060
108,1.,0.,-0.,-69.6,0,-69.6,-24.78,-21.6,0.;                     0000121P0000061
142,0,121,0,125,2;                                               0000123P0000062
102,4,127,129,131,133;                                           0000125P0000063
110,-69.6,-24.78,21.6,-69.6,-24.78,-21.6;                        0000127P0000064
110,-69.6,-24.78,-21.6,-69.6,24.78,-21.6;                        0000129P0000065
110,-69.6,24.78,-21.6,-69.6,24.78,21.6;                          0000131P0000066
110,-69.6,24.78,21.6,-69.6,-24.78,21.6;                          0000133P0000067
144,137,1,0,139;                                                 0000135P0000068
108,0.,-1.,-0.,24.78,0,-96.,-24.78,-21.6,0.;                     0000137P0000069
142,0,137,0,141,2;                                               0000139P0000070
102,4,143,145,147,149;                                           0000141P0000071
110,-96.,-24.78,21.6,-96.,-24.78,-21.6;                          0000143P0000072
110,-96.,-24.78,-21.6,-69.6,-24.78,-21.6;                        0000145P0000073
110,-69.6,-24.78,-21.6,-69.6,-24.78,21.6;                        0000147P0000074
110,-69.6,-24.78,21.6,-96.,-24.78,21.6;                          0000149P0000075
144,153,1,0,155;                                                 0000151P0000076
108,-0.,1.,0.,24.78,0,-96.,24.78,-21.6,0.;                       0000153P0000077
142,0,153,0,157,2;                                               0000155P0000078
102,4,159,161,163,165;                                           0000157P0000079
110,-69.6,24.78,-21.6,-96.,24.78,-21.6;                          0000159P0000080
110,-96.,24.78,-21.6,-96.,24.78,21.6;                            0000161P0000081
110,-96.,24.78,21.6,-69.6,24.78,21.6;                            0000163P0000082
110,-69.6,24.78,21.6,-69.6,24.78,-21.6;                          0000165P0000083
144,169,1,0,171;                                                 0000167P0000084
108,-0.,-0.,-1.,21.6,0,-96.,-24.78,-21.6,0.;                     0000169P0000085
142,0,169,0,173,2;                                               0000171P0000086
102,4,175,177,179,181;                                           0000173P0000087
110,-69.6,-24.78,-21.6,-96.,-24.78,-21.6;                        0000175P0000088
110,-96.,-24.78,-21.6,-96.,24.78,-21.6;                          0000177P0000089
110,-96.,24.78,-21.6,-69.6,24.78,-21.6;                          0000179P0000090
110,-69.6,24.78,-21.6,-69.6,-24.78,-21.6;                        0000181P0000091
144,185,1,0,187;                                                 0000183P0000092
108,0.,0.,1.,21.6,0,-96.,-24.78,21.6,0.;                         0000185P0000093
142,0,185,0,189,2;                                               0000187P0000094
102,4,191,193,195,197;                                           0000189P0000095
110,-96.,24.78,21.6,-96.,-24.78,21.6;                            0000191P0000096
110,-96.,-24.78,21.6,-69.6,-24.78,21.6;                          0000193P0000097
110,-69.6,-24.78,21.6,-69.6,24.78,21.6;                          0000195P0000098
110,-69.6,24.78,21.6,-96.,24.78,21.6;                            0000197P0000099
402,6,201,217,233,249,265,281;                                   0000199P0000100
144,203,1,0,205;                                                 0000201P0000101
108,-0.906307787,-0.,-0.422618262,-40.454065593,0,39.6,-15.12,   0000203P0000102
10.8,0.;                                                         0000203P0000103
142,0,203,0,207,2;                                               0000205P0000104
102,4,209,211,213,215;                                           0000207P0000105
110,39.6,15.12,10.8,39.6,-15.12,10.8;                            0000209P0000106
110,39.6,-15.12,10.8,30.97858746,-15.12,29.288678856;            0000211P0000107
110,30.97858746,-15.12,29.288678856,30.97858746,15.12,           0000213P0000108
29.288678856;                                                    0000213P0000109
110,30.97858746,15.12,29.288678856,39.6,15.12,10.8;              0000215P0000110
144,219,1,0,221;                                                 0000217P0000111
108,0.906307787,0.,0.422618262,110.054065593,0,102.679021978,    0000219P0000112
-15.12,40.214231017,0.;                                          0000219P0000113
142,0,219,0,223,2;                                               0000221P0000114
102,4,225,227,229,231;                                           0000223P0000115
110,94.057609438,-15.12,58.702909873,102.679021978,-15.12,       0000225P0000116
40.214231017;                                                    0000225P0000117
110,102.679021978,-15.12,40.214231017,102.679021978,15.12,       0000227P0000118
40.214231017;                                                    0000227P0000119
110,102.679021978,15.12,40.214231017,94.057609438,15.12,         0000229P0000120
58.702909873;                                                    0000229P0000121
110,94.057609438,15.12,58.702909873,94.057609438,-15.12,         0000231P0000122
58.702909873;                                                    0000231P0000123
144,235,1,0,237;                                                 0000233P0000124
108,-0.,-1.,-0.,15.12,0,39.6,-15.12,10.8,0.;                     0000235P0000125
142,0,235,0,239,2;                                               0000237P0000126
102,4,241,243,245,247;                                           0000239P0000127
110,30.97858746,-15.12,29.288678856,39.6,-15.12,10.8;            0000241P0000128
110,39.6,-15.12,10.8,102.679021978,-15.12,40.214231017;          0000243P0000129
110,102.679021978,-15.12,40.214231017,94.057609438,-15.12,       0000245P0000130
58.702909873;                                                    0000245P0000131
110,94.057609438,-15.12,58.702909873,30.97858746,-15.12,         0000247P0000132
29.288678856;                                                    0000247P0000133
144,251,1,0,253;                                                 0000249P0000134
108,0.,1.,0.,15.12,0,39.6,15.12,10.8,0.;                         0000251P0000135
142,0,251,0,255,2;                                               0000253P0000136
102,4,257,259,261,263;                                           0000255P0000137
110,102.679021978,15.12,40.214231017,39.6,15.12,10.8;            0000257P0000138
110,39.6,15.12,10.8,30.97858746,15.12,29.288678856;              0000259P0000139
110,30.97858746,15.12,29.288678856,94.057609438,15.12,           0000261P0000140
58.702909873;                                                    0000261P0000141
110,94.057609438,15.12,58.702909873,102.679021978,15.12,         0000263P0000142
40.214231017;                                                    0000263P0000143
144,267,1,0,269;                                                 0000265P0000144
108,0.422618262,-0.,-0.906307787,6.947559065,0,39.6,-15.12,10.8, 0000267P0000145
0.;                                                              0000267P0000146
142,0,267,0,271,2;                                               0000269P0000147
102,4,273,275,277,279;                                           0000271P0000148
110,102.679021978,-15.12,40.214231017,39.6,-15.12,10.8;          0000273P0000149
110,39.6,-15.12,10.8,39.6,15.12,10.8;                            0000275P0000150
110,39.6,15.12,10.8,102.679021978,15.12,40.214231017;            0000277P0000151
110,102.679021978,15.12,40.214231017,102.679021978,-15.12,       0000279P0000152
40.214231017;                                                    0000279P0000153
144,283,1,0,285;                                                 0000281P0000154
108,-0.422618262,0.,0.906307787,13.452440935,0,30.97858746,      0000283P0000155
-15.12,29.288678856,0.;                                          0000283P0000156
142,0,283,0,287,2;                                               0000285P0000157
102,4,289,291,293,295;                                           0000287P0000158
110,30.97858746,15.12,29.288678856,30.97858746,-15.12,           0000289P0000159
29.288678856;                                                    0000289P0000160
110,30.97858746,-15.12,29.288678856,94.057609438,-15.12,         0000291P0000161
58.702909873;                                                    0000291P0000162
110,94.057609438,-15.12,58.702909873,94.057609438,15.12,         0000293P0000163
58.702909873;                                                    0000293P0000164
110,94.057609438,15.12,58.702909873,30.97858746,15.12,           0000295P0000165
29.288678856;                                                    0000295P0000166
402,3,299,335,345;                                               0000297P0000167
144,301,1,0,309;                                                 0000299P0000168
120,305,307,0.,6.283185307;                                      0000301P0000169
124,0.,0.,1.,50.4,0.,-1.,0.,0.,1.,0.,0.,0.;                      0000303P0000170
110,0.,0.,1.,0.,0.,0.;                                           0000305P0000171
110,17.28,0.,0.,17.28,0.,80.;                                    0000307P0000172
142,0,301,311,321,3;                                             0000309P0000173
102,4,313,315,317,319;                                           0000311P0000174
110,1.,1.776356839E-14,0.,1.,6.283185307,0.;                     0000313P0000175
110,1.,6.283185307,0.,0.,6.283185307,0.;                         0000315P0000176
110,0.,6.283185307,0.,-1.743934249E-17,0.,0.;                    0000317P0000177
110,-1.743934249E-17,1.776356839E-15,0.,1.,1.953992523E-14,0.;   0000319P0000178
102,4,323,327,329,333;                                           0000321P0000179
100,0.,0.,0.,17.28,0.,17.28,0.;                                  0000323P0000180
124,0.,0.,-1.,130.4,0.,1.,0.,0.,1.,0.,-0.,0.;                    0000325P0000181
110,130.4,4.232379338E-15,17.28,50.4,4.232379338E-15,17.28;      0000327P0000182
100,0.,0.,0.,17.28,0.,17.28,0.;                                  0000329P0000183
124,0.,0.,1.,50.4,0.,-1.,0.,0.,1.,0.,0.,0.;                      0000331P0000184
110,50.4,4.232379338E-15,17.28,130.4,4.232379338E-15,17.28;      0000333P0000185
144,337,1,0,339;                                                 0000335P0000186
108,1.,0.,0.,130.4,0,130.4,0.,0.,0.;                             0000337P0000187
142,0,337,0,341,2;                                               0000339P0000188
100,0.,0.,0.,17.28,0.,17.28,0.;                                  0000341P0000189
124,0.,0.,1.,130.4,0.,-1.,0.,0.,1.,0.,0.,0.;                     0000343P0000190
144,347,1,0,349;                                                 0000345P0000191
108,-1.,-0.,-0.,-50.4,0,50.4,0.,0.,0.;                           0000347P0000192
142,0,347,0,351,2;                                               0000349P0000193
100,0.,0.,0.,17.28,0.,17.28,0.;                                  0000351P0000194
124,0.,0.,-1.,50.4,0.,1.,0.,0.,1.,0.,-0.,0.;                     0000353P0000195
402,3,357,393,403;                                               0000355P0000196
144,359,1,0,367;                                                 0000357P0000197
120,363,365,0.,6.283185307;                                      0000359P0000198
124,0.,0.,1.,130.4,0.,-1.,0.,0.,1.,0.,0.,0.;                     0000361P0000199
110,0.,0.,1.,0.,0.,0.;                                           0000363P0000200
110,16.,0.,0.,16.,0.,220.;                                       0000365P0000201
142,0,359,369,379,3;                                             0000367P0000202
102,4,371,373,375,377;                                           0000369P0000203
110,1.,4.884981308E-14,0.,1.,6.283185307,0.;                     0000371P0000204
110,1.,6.283185307,0.,0.,6.283185307,0.;                         0000373P0000205
110,0.,6.283185307,0.,-6.341579087E-18,0.,0.;                    0000375P0000206
110,-6.341579087E-18,1.776356839E-15,0.,1.,5.062616992E-14,0.;   0000377P0000207
102,4,381,385,387,391;                                           0000379P0000208
100,0.,0.,0.,16.,0.,16.,0.;                                      0000381P0000209
124,0.,0.,-1.,350.4,0.,1.,0.,0.,1.,0.,-0.,0.;                    0000383P0000210
110,350.4,3.918869757E-15,16.,130.4,3.918869757E-15,16.;         0000385P0000211
100,0.,0.,0.,16.,0.,16.,0.;                                      0000387P0000212
124,0.,0.,1.,130.4,0.,-1.,0.,0.,1.,0.,0.,0.;                     0000389P0000213
110,130.4,3.918869757E-15,16.,350.4,3.918869757E-15,16.;         0000391P0000214
144,395,1,0,397;                                                 0000393P0000215
108,1.,0.,0.,350.4,0,350.4,0.,0.,0.;                             0000395P0000216
142,0,395,0,399,2;                                               0000397P0000217
100,0.,0.,0.,16.,0.,16.,0.;                                      0000399P0000218
124,0.,0.,1.,350.4,0.,-1.,0.,0.,1.,0.,0.,0.;                     0000401P0000219
144,405,1,0,407;                                                 0000403P0000220
108,-1.,-0.,-0.,-130.4,0,130.4,0.,0.,0.;                         0000405P0000221
142,0,405,0,409,2;                                               0000407P0000222
100,0.,0.,0.,16.,0.,16.,0.;                                      0000409P0000223
124,0.,0.,-1.,130.4,0.,1.,0.,0.,1.,0.,-0.,0.;                    0000411P0000224
402,3,415,451,461;                                               0000413P0000225
144,417,1,0,425;                                                 0000415P0000226
120,421,423,0.,6.283185307;                                      0000417P0000227
124,0.,0.,1.,350.4,0.,-1.,0.,0.,1.,0.,0.,0.;                     0000419P0000228
110,0.,0.,1.,0.,0.,0.;                                           0000421P0000229
110,19.52,0.,0.,19.52,0.,22.4;                                   0000423P0000230
142,0,417,427,437,3;                                             0000425P0000231
102,4,429,431,433,435;                                           0000427P0000232
110,1.,5.329070518E-15,0.,1.,6.283185307,0.;                     0000429P0000233
110,1.,6.283185307,0.,0.,6.283185307,0.;                         0000431P0000234
110,0.,6.283185307,0.,-6.228336604E-17,0.,0.;                    0000433P0000235
110,-6.228336604E-17,1.776356839E-15,0.,1.,6.75015599E-15,0.;    0000435P0000236
102,4,439,443,445,449;                                           0000437P0000237
100,0.,0.,0.,19.52,0.,19.52,0.;                                  0000439P0000238
124,0.,0.,-1.,372.8,0.,1.,0.,0.,1.,0.,-0.,0.;                    0000441P0000239
110,372.8,4.781021104E-15,19.52,350.4,4.781021104E-15,19.52;     0000443P0000240
100,0.,0.,0.,19.52,0.,19.52,0.;                                  0000445P0000241
124,0.,0.,1.,350.4,0.,-1.,0.,0.,1.,0.,0.,0.;                     0000447P0000242
110,350.4,4.781021104E-15,19.52,372.8,4.781021104E-15,19.52;     0000449P0000243
144,453,1,0,455;                                                 0000451P0000244
108,1.,0.,0.,372.8,0,372.8,0.,0.,0.;                             0000453P0000245
142,0,453,0,457,2;                                               0000455P0000246
100,0.,0.,0.,19.52,0.,19.52,0.;                                  0000457P0000247
124,0.,0.,1.,372.8,0.,-1.,0.,0.,1.,0.,0.,0.;                     0000459P0000248
144,463,1,0,465;                                                 0000461P0000249
108,-1.,-0.,-0.,-350.4,0,350.4,0.,0.,0.;                         0000463P0000250
142,0,463,0,467,2;                                               0000465P0000251
100,0.,0.,0.,19.52,0.,19.52,0.;                                  0000467P0000252
124,0.,0.,-1.,350.4,0.,1.,0.,0.,1.,0.,-0.,0.;                    0000469P0000253
S      1G      4D    470P    253                                        T0000001
